<svg width="32" height="32" viewBox="0 0 32 32" fill="none" xmlns="http://www.w3.org/2000/svg">
<circle cx="16" cy="16" r="16" fill="#EF6C22"/>
<path d="M18.7005 10.3037C18.5172 10.4906 18.4146 10.7419 18.4146 11.0037C18.4146 11.2654 18.5172 11.5168 18.7005 11.7037L20.3005 13.3037C20.4874 13.4869 20.7387 13.5895 21.0005 13.5895C21.2622 13.5895 21.5135 13.4869 21.7005 13.3037L24.8065 10.1987C25.1265 9.87669 25.6695 9.97869 25.7895 10.4167C26.0916 11.5156 26.0745 12.6778 25.7402 13.7673C25.406 14.8568 24.7683 15.8286 23.9019 16.5689C23.0354 17.3093 21.9761 17.7875 20.8477 17.9478C19.7194 18.108 18.5688 17.9436 17.5305 17.4737L9.62047 25.3837C9.22264 25.7814 8.68313 26.0048 8.12061 26.0047C7.5581 26.0046 7.01866 25.781 6.62097 25.3832C6.22327 24.9854 5.99991 24.4459 6 23.8833C6.00009 23.3208 6.22364 22.7814 6.62147 22.3837L14.5315 14.4737C14.0616 13.4354 13.8972 12.2848 14.0574 11.1564C14.2176 10.0281 14.6959 8.96874 15.4362 8.10231C16.1766 7.23587 17.1484 6.5982 18.2379 6.26392C19.3274 5.92963 20.4896 5.91256 21.5885 6.21469C22.0265 6.33469 22.1285 6.87669 21.8075 7.19869L18.7005 10.3037Z" stroke="white" stroke-width="2" stroke-linecap="round" stroke-linejoin="round"/>
</svg>
