<svg width="701" height="150" viewBox="0 0 701 150" fill="none" xmlns="http://www.w3.org/2000/svg">
<path d="M23.8 148.986V126.186H60.4C67.0667 126.186 72.1333 124.386 75.6 120.786C79.0667 117.053 80.8 111.986 80.8 105.586C80.8 99.1864 79.0667 94.2531 75.6 90.7864C72.1333 87.1864 67.0667 85.3864 60.4 85.3864H23.8V67.9864H58.4C68.1333 67.9864 76.8 69.1864 84.4 71.5864C92.1333 73.8531 98.1333 77.7197 102.4 83.1864C106.8 88.6531 109 95.9864 109 105.186V107.986C109 116.653 107.067 124.053 103.2 130.186C99.4667 136.186 93.8 140.853 86.2 144.186C78.7333 147.386 69.4667 148.986 58.4 148.986H23.8ZM0 148.986V0.986389H27.8V148.986H0ZM23.8 80.7864V63.3864H55C61.8 63.3864 66.8 61.5864 70 57.9864C73.2 54.3864 74.8 49.5864 74.8 43.5864C74.8 37.5864 73.2 32.7864 70 29.1864C66.8 25.5864 61.8 23.7864 55 23.7864H23.8V0.986389H52.4C68.9333 0.986389 81.4667 4.45305 90 11.3864C98.6667 18.3197 103 28.2531 103 41.1864V43.9864C103 53.0531 100.8 60.3197 96.4 65.7864C92.1333 71.1197 86.2 74.9864 78.6 77.3864C71 79.6531 62.2667 80.7864 52.4 80.7864H23.8Z" fill="#EF6C22"/>
<path d="M179.289 1.65623C180.836 0.763088 182.742 0.763128 184.289 1.65623L244.079 36.1758C245.626 37.069 246.579 38.7198 246.579 40.5058V109.545L246.567 109.878C246.457 111.534 245.529 113.038 244.079 113.875L184.289 148.395C182.742 149.288 180.836 149.287 179.289 148.395L119.5 113.875C118.05 113.038 117.121 111.534 117.011 109.878L117 109.545V40.5058C117 38.7196 117.953 37.0689 119.5 36.1758L179.289 1.65623ZM129 44.5469V105.503L181.789 135.981L234.579 105.504V44.5469L181.789 14.0693L129 44.5469ZM182.192 37.542C202.851 37.542 219.598 54.2895 219.599 74.9482C219.599 95.6072 202.851 112.354 182.192 112.354C161.534 112.354 144.786 95.607 144.786 74.9482C144.786 54.2897 161.534 37.5423 182.192 37.542ZM182.192 47.542C167.057 47.5423 154.786 59.8125 154.786 74.9482C154.786 90.0841 167.057 102.354 182.192 102.354C197.328 102.354 209.599 90.0843 209.599 74.9482C209.598 59.8124 197.328 47.542 182.192 47.542Z" fill="#EF6C22"/>
<path d="M255 148.986V0.986389H302.143L364.258 125.063H370.935L366.888 128.712V0.986389H394V148.986H346.655L284.54 24.9097H277.661L281.707 21.2604V148.986H255Z" fill="#EF6C22"/>
<path d="M457.793 148.986L406.542 79.8521H386.771L447.619 0.986389H478.907L424.009 71.9453L423.241 57.7535L491 148.986H457.793ZM367 148.986V0.986389H394.257V148.986H367Z" fill="#EF6C22"/>
<path d="M629.649 148.986V22.2741H658.351V148.986H629.649ZM587 26.3289V0.986389H701V26.3289H587Z" fill="#EF6C22"/>
<path d="M527.122 37.9759C525.92 36.9057 525.237 35.4586 525.22 33.9452L525.229 8.54704C525.225 5.91809 522.267 4.11912 519.705 5.41929C513.271 8.67681 508.012 13.4983 504.543 19.3197C501.075 25.141 499.54 31.7213 500.119 38.2907C500.699 44.8601 503.367 51.1468 507.813 56.4152C512.259 61.6835 518.299 65.7156 525.225 68.0397L525.229 144.986H552.78L552.775 68.0438C559.701 65.7197 565.741 61.6876 570.187 56.4192C574.633 51.1509 577.301 44.8642 577.881 38.2948C578.46 31.7254 576.925 25.1451 573.457 19.3237C569.988 13.5024 564.729 8.68089 558.295 5.42337C555.733 4.12321 552.771 5.92627 552.78 8.55112L552.775 33.9452C552.758 35.4586 552.075 36.9057 550.873 37.9759C549.671 39.0461 548.046 39.654 546.346 39.6692H531.65C529.95 39.654 528.324 39.0461 527.122 37.9759Z" stroke="#EF6C22" stroke-width="10" stroke-linecap="round" stroke-linejoin="round"/>
</svg>
